<svg xmlns="http://www.w3.org/2000/svg" viewBox="140 90 120 120">
  <path d="M196.173 100.900 C 194.960 103.029,193.129 106.725,188.988 115.400 C 187.728 118.040,185.032 123.620,182.998 127.800 C 180.963 131.980,178.895 136.300,178.402 137.400 C 177.910 138.500,176.067 142.370,174.308 146.000 C 172.549 149.630,170.246 154.400,169.192 156.600 C 168.137 158.800,165.888 163.480,164.193 167.000 C 162.498 170.520,160.666 174.390,160.120 175.600 C 159.575 176.810,157.991 180.140,156.600 183.000 C 155.209 185.860,153.356 189.730,152.481 191.600 C 151.606 193.470,149.364 198.150,147.500 202.000 C 140.834 215.765,140.576 216.400,141.645 216.400 C 142.258 216.400,151.544 211.676,155.862 209.168 C 157.808 208.037,160.570 206.475,162.000 205.697 C 163.430 204.918,166.580 203.161,169.000 201.793 C 173.976 198.979,182.631 194.181,191.200 189.484 C 194.390 187.735,197.180 186.165,197.400 185.995 C 197.812 185.676,198.709 185.182,208.107 180.099 C 214.859 176.446,214.604 176.346,217.532 183.800 C 218.420 186.061,222.639 195.279,227.692 206.000 C 228.781 208.310,229.997 211.010,230.395 212.000 C 231.719 215.298,238.013 228.151,238.646 228.851 C 239.453 229.743,240.346 229.435,247.800 225.698 C 255.234 221.972,255.178 222.041,253.572 218.549 C 251.829 214.758,250.647 212.154,249.601 209.800 C 249.113 208.700,247.563 205.452,246.157 202.582 C 244.750 199.711,243.600 197.231,243.600 197.070 C 243.600 196.909,242.731 194.938,241.668 192.689 C 240.605 190.440,239.450 187.970,239.102 187.200 C 238.753 186.430,237.643 184.028,236.634 181.863 C 235.625 179.698,234.800 177.859,234.800 177.777 C 234.800 177.695,233.900 175.798,232.800 173.561 C 230.068 168.006,230.099 167.743,233.700 165.818 C 249.022 157.626,265.591 148.090,265.899 147.287 C 266.105 146.750,265.811 146.104,263.403 141.800 C 259.986 135.691,258.687 133.600,258.309 133.600 C 257.875 133.600,249.312 137.830,248.600 138.397 C 248.004 138.871,245.694 140.142,238.600 143.899 C 235.080 145.764,231.660 147.611,231.000 148.004 C 230.340 148.397,228.630 149.334,227.200 150.087 C 225.770 150.839,223.745 151.938,222.700 152.528 C 219.956 154.076,217.871 155.217,213.800 157.395 C 209.703 159.588,207.690 160.692,205.400 162.002 C 204.520 162.506,202.810 163.457,201.600 164.117 C 200.390 164.776,199.220 165.445,199.000 165.605 C 198.780 165.764,196.980 166.755,195.000 167.807 C 193.020 168.858,190.320 170.347,189.000 171.114 C 187.680 171.881,186.060 172.820,185.400 173.200 C 184.740 173.580,183.514 174.300,182.675 174.800 C 180.018 176.383,180.250 175.375,184.657 166.197 C 189.256 156.617,191.611 151.621,193.425 147.600 C 195.548 142.891,196.994 140.200,197.400 140.200 C 197.808 140.200,198.647 141.758,201.292 147.427 C 203.730 152.654,203.232 152.468,207.834 149.870 C 210.016 148.639,213.132 146.948,214.759 146.112 C 216.386 145.276,217.893 144.314,218.108 143.974 C 218.542 143.285,217.482 140.632,212.545 130.063 C 211.585 128.008,210.800 126.252,210.800 126.162 C 210.800 126.071,209.540 123.363,208.000 120.144 C 206.460 116.924,205.200 114.203,205.200 114.096 C 205.200 113.866,202.895 108.659,200.907 104.400 C 200.137 102.750,199.256 100.815,198.948 100.100 C 198.171 98.291,197.558 98.468,196.173 100.900" fill="#c82a29" />
</svg>
