<svg id="svg" version="1.1" xmlns="http://www.w3.org/2000/svg" xmlns:xlink="http://www.w3.org/1999/xlink" width="400" height="521.8436873747495" viewBox="-200 0 600 521.8436873747495"><defs><style>.logo-key-rotate{transform-origin:200px 180px;animation:logo-key-rotate 1.8s 0.5s ease-out forwards}@keyframes logo-key-rotate{from{transform:rotate(0deg)}to{transform:rotate(90deg)}}</style></defs><g id="svgg"><path id="path0" class="logo-key-rotate" d="M152.295 12.967 C 146.190 15.477,143.868 19.310,141.815 30.261 C 140.961 34.823,140.578 36.847,140.012 39.800 C 139.759 41.120,139.368 43.190,139.144 44.400 C 138.604 47.307,138.175 49.255,137.383 52.400 C 137.023 53.830,136.589 55.630,136.420 56.400 C 136.250 57.170,135.837 58.520,135.503 59.400 C 135.169 60.280,134.662 61.810,134.376 62.800 C 134.090 63.790,133.738 64.780,133.593 65.000 C 133.449 65.220,132.904 66.480,132.382 67.800 C 131.326 70.470,129.188 74.697,127.265 77.918 C 126.569 79.082,126.000 80.125,126.000 80.234 C 126.000 80.776,119.908 88.233,116.861 91.421 C 112.645 95.833,110.343 98.363,108.076 101.077 C 106.488 102.978,106.244 103.124,104.993 102.921 C 104.061 102.770,103.147 102.955,102.079 103.512 C 101.063 104.042,100.328 104.200,99.961 103.968 C 96.890 102.023,94.207 104.219,89.993 112.130 C 88.214 115.468,86.491 118.650,86.165 119.200 C 82.991 124.545,82.861 128.237,85.780 130.150 C 86.617 130.698,86.800 131.133,86.800 132.574 C 86.800 134.033,87.002 134.499,88.000 135.339 C 89.467 136.573,89.540 137.814,88.366 141.547 C 86.971 145.988,86.800 146.627,86.795 147.428 C 86.772 150.597,85.423 152.895,83.190 153.568 C 81.301 154.138,80.871 154.463,80.060 155.932 C 79.381 157.163,78.797 157.701,77.956 157.869 C 74.085 158.643,73.000 161.998,73.000 173.200 C 73.000 184.447,73.442 185.825,77.500 187.218 C 78.859 187.684,79.508 188.207,80.150 189.353 C 80.815 190.540,81.435 191.021,82.999 191.561 C 85.263 192.343,85.695 192.978,86.431 196.600 C 86.896 198.886,87.602 201.737,88.462 204.800 C 89.356 207.980,89.354 207.998,88.051 209.272 C 86.983 210.316,86.800 210.784,86.800 212.473 C 86.800 214.161,86.631 214.594,85.652 215.418 C 82.693 217.907,82.926 220.504,86.788 228.118 C 93.621 241.592,95.322 243.310,100.112 241.578 C 101.357 241.127,101.627 241.164,102.712 241.938 C 103.390 242.420,104.531 242.800,105.304 242.800 C 106.342 242.800,106.924 243.090,107.655 243.972 C 110.744 247.701,115.223 252.468,120.271 257.400 C 123.423 260.480,126.002 263.164,126.001 263.364 C 126.001 263.564,126.682 264.644,127.516 265.764 C 130.442 269.693,134.313 276.752,135.873 281.000 C 136.196 281.880,136.602 282.873,136.776 283.208 C 137.461 284.527,139.860 292.854,141.181 298.500 C 144.102 310.983,144.864 312.882,148.166 315.899 C 152.972 320.292,153.913 320.446,175.373 320.345 C 198.621 320.236,195.557 320.237,220.800 320.342 C 256.226 320.490,255.985 320.618,260.800 299.000 C 262.563 291.084,263.708 287.179,265.606 282.600 C 265.789 282.160,266.263 280.990,266.661 280.000 C 267.956 276.773,272.193 268.648,273.961 266.000 C 274.328 265.450,274.892 264.473,275.214 263.828 C 275.725 262.806,277.780 260.484,283.200 254.804 C 283.970 253.997,286.130 251.564,288.000 249.396 C 289.870 247.229,292.030 244.762,292.800 243.914 L 294.200 242.373 296.361 242.788 C 298.399 243.179,298.600 243.142,299.915 242.139 C 301.063 241.263,301.440 241.157,302.049 241.538 C 302.941 242.095,305.574 242.142,306.931 241.626 C 308.014 241.215,310.251 237.693,314.540 229.649 C 319.594 220.172,319.860 218.138,316.440 215.097 C 315.449 214.215,315.200 213.677,315.200 212.413 C 315.200 211.076,314.947 210.598,313.562 209.316 C 311.870 207.751,311.589 205.576,312.779 203.265 C 312.968 202.899,313.310 201.880,313.539 201.000 C 314.779 196.245,315.076 195.439,315.996 194.345 C 316.827 193.357,317.611 193.015,320.533 192.367 C 329.308 190.420,329.577 189.810,329.590 171.779 L 329.600 159.357 328.559 157.267 C 326.977 154.092,325.668 153.323,319.965 152.218 C 318.449 151.924,317.002 150.639,315.835 148.550 L 314.805 146.708 316.011 144.921 C 320.199 138.716,319.875 132.534,315.125 128.002 C 312.974 125.951,313.026 125.573,315.601 124.575 C 320.152 122.812,320.169 118.967,315.656 112.450 C 315.256 111.873,313.978 109.600,312.816 107.400 C 310.292 102.623,308.259 99.830,306.522 98.754 L 305.243 97.962 303.522 98.839 C 302.575 99.321,301.243 100.139,300.562 100.658 C 298.909 101.916,298.989 101.970,298.008 98.933 C 295.964 92.606,292.637 90.023,286.384 89.907 C 281.411 89.815,277.454 85.322,270.969 72.400 C 268.852 68.183,268.807 68.077,267.583 64.400 C 267.107 62.970,266.568 61.440,266.386 61.000 C 265.535 58.947,263.096 48.423,261.982 42.000 C 261.772 40.790,261.429 38.900,261.218 37.800 C 261.007 36.700,260.631 34.720,260.381 33.400 C 260.131 32.080,259.779 30.280,259.600 29.400 C 259.421 28.520,259.083 26.740,258.849 25.445 C 257.971 20.580,255.165 16.155,251.646 14.085 C 247.959 11.916,250.319 12.012,200.800 12.016 L 154.600 12.019 152.295 12.967 M214.400 53.175 C 215.610 53.417,217.590 53.805,218.800 54.037 C 223.267 54.895,232.478 57.391,233.400 57.994 C 233.620 58.138,234.610 58.501,235.600 58.800 C 236.590 59.099,237.580 59.462,237.800 59.607 C 238.020 59.751,239.280 60.296,240.600 60.818 C 246.071 62.982,254.614 67.990,259.594 71.954 C 261.673 73.609,259.923 73.186,256.620 71.234 C 254.725 70.116,253.107 69.200,253.023 69.200 C 252.940 69.200,251.550 68.584,249.936 67.831 C 244.239 65.173,237.796 62.928,228.739 60.442 C 223.472 58.997,211.505 57.200,207.150 57.200 L 204.879 57.200 204.620 61.900 C 204.285 68.007,204.212 68.283,202.689 69.211 C 198.400 71.826,195.650 68.648,195.638 61.059 C 195.631 56.632,196.232 56.965,189.315 57.553 C 174.605 58.803,161.098 62.657,146.989 69.631 C 138.270 73.941,137.692 73.834,144.612 69.192 C 156.226 61.400,168.898 56.246,181.900 54.027 C 183.275 53.792,185.435 53.420,186.700 53.199 C 187.965 52.978,189.720 52.726,190.600 52.638 C 193.726 52.324,212.236 52.742,214.400 53.175 M210.779 88.434 C 212.661 88.673,214.830 89.013,215.600 89.189 C 225.348 91.416,226.834 91.846,232.200 93.995 C 234.651 94.976,242.039 98.692,243.472 99.665 C 244.392 100.289,245.249 100.800,245.376 100.800 C 245.595 100.800,247.806 102.304,251.400 104.898 C 286.782 130.436,295.730 183.950,270.813 221.000 C 253.163 247.246,219.761 262.862,190.833 258.393 C 184.371 257.395,182.377 257.022,179.000 256.183 C 177.020 255.690,174.320 254.892,173.000 254.409 C 171.680 253.925,169.661 253.186,168.514 252.766 C 166.355 251.976,162.400 250.256,161.000 249.499 C 156.788 247.220,155.322 246.347,152.200 244.263 C 147.014 240.801,141.312 236.091,138.488 232.935 C 137.141 231.431,135.297 229.390,134.390 228.400 C 122.221 215.124,114.323 193.773,114.267 174.000 C 114.166 138.333,133.974 108.572,167.600 93.872 C 172.186 91.867,180.916 89.584,188.400 88.432 C 191.652 87.932,206.833 87.933,210.779 88.434 M121.075 98.361 C 123.781 100.337,123.575 105.565,120.734 107.034 C 115.917 109.525,110.901 104.545,113.650 100.000 C 115.302 97.269,118.587 96.543,121.075 98.361 M286.710 98.529 C 288.828 100.459,289.175 102.172,287.959 104.685 C 285.058 110.677,276.027 106.819,278.591 100.682 C 279.932 97.474,284.287 96.319,286.710 98.529 M309.100 134.250 C 312.192 137.777,309.783 142.797,305.000 142.797 C 302.184 142.797,299.600 140.385,299.600 137.757 C 299.600 132.924,305.899 130.599,309.100 134.250 M121.414 239.213 C 123.497 241.170,123.572 245.111,121.563 247.036 C 118.776 249.706,114.277 248.447,113.229 244.704 C 111.862 239.820,117.811 235.828,121.414 239.213 M285.087 238.668 C 289.961 240.981,288.217 248.400,282.800 248.400 C 277.773 248.400,275.858 241.382,280.168 238.754 C 281.692 237.825,283.252 237.797,285.087 238.668 M142.800 274.006 C 148.433 277.813,165.571 284.509,174.000 286.196 C 174.770 286.350,177.020 286.818,179.000 287.236 C 182.962 288.072,195.052 289.339,195.634 288.979 C 195.835 288.855,196.000 286.774,196.000 284.357 C 196.000 278.446,197.166 276.381,200.486 276.413 C 203.635 276.443,204.794 278.558,204.797 284.276 C 204.799 286.857,204.971 288.859,205.204 289.003 C 205.902 289.434,216.757 288.258,222.400 287.140 C 234.171 284.808,241.144 282.392,253.300 276.431 C 256.765 274.731,259.600 273.408,259.600 273.489 C 259.600 276.461,240.029 286.366,225.800 290.594 C 204.011 297.068,178.219 294.192,155.000 282.698 C 150.157 280.300,140.777 274.225,140.489 273.300 C 140.302 272.699,141.331 273.013,142.800 274.006 " stroke="none" fill="#243043" fill-rule="evenodd"></path><path id="path1-dial" d="M196.173 100.900 C 194.960 103.029,193.129 106.725,188.988 115.400 C 187.728 118.040,185.032 123.620,182.998 127.800 C 180.963 131.980,178.895 136.300,178.402 137.400 C 177.910 138.500,176.067 142.370,174.308 146.000 C 172.549 149.630,170.246 154.400,169.192 156.600 C 168.137 158.800,165.888 163.480,164.193 167.000 C 162.498 170.520,160.666 174.390,160.120 175.600 C 159.575 176.810,157.991 180.140,156.600 183.000 C 155.209 185.860,153.356 189.730,152.481 191.600 C 151.606 193.470,149.364 198.150,147.500 202.000 C 140.834 215.765,140.576 216.400,141.645 216.400 C 142.258 216.400,151.544 211.676,155.862 209.168 C 157.808 208.037,160.570 206.475,162.000 205.697 C 163.430 204.918,166.580 203.161,169.000 201.793 C 173.976 198.979,182.631 194.181,191.200 189.484 C 194.390 187.735,197.180 186.165,197.400 185.995 C 197.812 185.676,198.709 185.182,208.107 180.099 C 214.859 176.446,214.604 176.346,217.532 183.800 C 218.420 186.061,222.639 195.279,227.692 206.000 C 228.781 208.310,229.997 211.010,230.395 212.000 C 231.719 215.298,238.013 228.151,238.646 228.851 C 239.453 229.743,240.346 229.435,247.800 225.698 C 255.234 221.972,255.178 222.041,253.572 218.549 C 251.829 214.758,250.647 212.154,249.601 209.800 C 249.113 208.700,247.563 205.452,246.157 202.582 C 244.750 199.711,243.600 197.231,243.600 197.070 C 243.600 196.909,242.731 194.938,241.668 192.689 C 240.605 190.440,239.450 187.970,239.102 187.200 C 238.753 186.430,237.643 184.028,236.634 181.863 C 235.625 179.698,234.800 177.859,234.800 177.777 C 234.800 177.695,233.900 175.798,232.800 173.561 C 230.068 168.006,230.099 167.743,233.700 165.818 C 249.022 157.626,265.591 148.090,265.899 147.287 C 266.105 146.750,265.811 146.104,263.403 141.800 C 259.986 135.691,258.687 133.600,258.309 133.600 C 257.875 133.600,249.312 137.830,248.600 138.397 C 248.004 138.871,245.694 140.142,238.600 143.899 C 235.080 145.764,231.660 147.611,231.000 148.004 C 230.340 148.397,228.630 149.334,227.200 150.087 C 225.770 150.839,223.745 151.938,222.700 152.528 C 219.956 154.076,217.871 155.217,213.800 157.395 C 209.703 159.588,207.690 160.692,205.400 162.002 C 204.520 162.506,202.810 163.457,201.600 164.117 C 200.390 164.776,199.220 165.445,199.000 165.605 C 198.780 165.764,196.980 166.755,195.000 167.807 C 193.020 168.858,190.320 170.347,189.000 171.114 C 187.680 171.881,186.060 172.820,185.400 173.200 C 184.740 173.580,183.514 174.300,182.675 174.800 C 180.018 176.383,180.250 175.375,184.657 166.197 C 189.256 156.617,191.611 151.621,193.425 147.600 C 195.548 142.891,196.994 140.200,197.400 140.200 C 197.808 140.200,198.647 141.758,201.292 147.427 C 203.730 152.654,203.232 152.468,207.834 149.870 C 210.016 148.639,213.132 146.948,214.759 146.112 C 216.386 145.276,217.893 144.314,218.108 143.974 C 218.542 143.285,217.482 140.632,212.545 130.063 C 211.585 128.008,210.800 126.252,210.800 126.162 C 210.800 126.071,209.540 123.363,208.000 120.144 C 206.460 116.924,205.200 114.203,205.200 114.096 C 205.200 113.866,202.895 108.659,200.907 104.400 C 200.137 102.750,199.256 100.815,198.948 100.100 C 198.171 98.291,197.558 98.468,196.173 100.900" stroke="none" fill="#c82a29" fill-rule="evenodd"></path><path id="path1-blade" class="logo-key-rotate" d="M163.842 321.015 C 163.153 321.704,163.015 325.485,163.535 329.386 C 163.888 332.032,165.474 333.194,168.759 333.213 C 172.716 333.235,172.400 331.260,172.400 355.980 L 172.400 377.672 175.124 380.336 C 176.623 381.801,178.779 383.810,179.916 384.800 C 182.173 386.766,182.137 386.631,182.036 392.737 L 182.000 394.873 178.180 398.522 C 171.499 404.903,171.491 404.989,177.000 410.362 L 181.200 414.459 181.200 418.932 L 181.200 423.405 177.960 426.803 C 172.436 432.595,172.400 432.664,172.400 437.282 L 172.400 441.244 177.600 446.291 L 182.800 451.338 182.800 453.678 L 182.800 456.019 179.500 459.506 C 177.685 461.424,175.866 463.243,175.458 463.549 C 175.050 463.854,174.195 464.926,173.558 465.930 L 172.400 467.757 172.400 476.699 L 172.400 485.642 175.900 489.086 C 185.976 499.001,192.071 504.800,192.415 504.800 C 192.661 504.800,192.800 471.422,192.800 412.628 L 192.800 320.457 178.642 320.415 C 166.145 320.379,164.408 320.449,163.842 321.015 M199.600 415.001 C 199.600 508.091,199.612 509.578,200.374 509.986 C 201.674 510.682,202.107 510.479,204.800 507.911 C 213.248 499.854,214.669 498.472,215.777 497.234 L 217.000 495.869 217.200 486.634 L 217.400 477.400 227.481 477.200 C 238.974 476.972,238.489 477.135,238.321 473.559 L 238.200 471.000 227.800 470.800 L 217.400 470.600 217.182 466.800 C 216.920 462.235,216.893 462.171,214.322 459.972 C 210.172 456.423,209.955 455.056,213.146 452.577 C 216.459 450.005,216.520 449.805,216.714 440.994 C 216.928 431.279,216.762 430.608,213.341 427.332 L 210.764 424.863 210.882 421.932 L 211.000 419.000 219.100 418.892 L 227.200 418.783 227.200 409.565 C 227.200 399.174,227.282 398.800,229.565 398.800 C 232.075 398.800,232.184 399.154,232.327 407.760 L 232.454 415.400 233.884 416.875 C 235.466 418.507,237.455 419.519,237.979 418.958 C 238.418 418.487,238.763 394.794,238.347 393.669 C 238.066 392.910,222.108 392.181,221.518 392.900 C 221.473 392.955,221.338 397.410,221.218 402.800 L 221.000 412.600 219.000 412.600 L 217.000 412.600 216.800 405.200 C 216.578 396.994,216.593 397.043,213.401 394.000 C 211.408 392.101,210.800 390.803,210.800 388.448 C 210.800 385.066,210.209 385.200,225.179 385.200 L 238.300 385.200 238.550 383.950 C 238.688 383.263,238.800 378.508,238.800 373.384 L 238.800 364.068 236.933 362.425 C 235.084 360.797,233.424 360.043,232.881 360.585 C 232.727 360.739,232.546 364.989,232.479 370.030 C 232.359 379.131,232.352 379.197,231.466 379.419 C 229.569 379.895,212.060 379.422,211.519 378.880 C 211.045 378.405,210.930 371.519,211.167 357.887 C 211.200 356.001,212.215 354.442,214.136 353.328 C 216.427 352.000,216.800 350.380,216.800 341.758 C 216.800 332.619,216.879 332.383,219.697 333.113 L 221.000 333.450 221.200 343.825 L 221.400 354.200 229.798 354.200 L 238.196 354.200 238.549 352.529 C 238.743 351.610,238.785 350.395,238.643 349.829 L 238.385 348.800 233.669 348.800 C 227.148 348.800,227.557 349.361,227.690 340.598 L 227.800 333.400 232.441 333.200 C 238.656 332.932,238.400 333.224,238.400 326.394 L 238.400 320.887 237.401 320.636 C 236.852 320.498,228.122 320.396,218.001 320.408 L 199.600 320.431 199.600 415.001 M221.467 426.667 C 221.128 427.005,221.124 450.676,221.462 451.939 C 221.988 453.903,226.066 451.868,226.784 449.283 C 227.309 447.393,227.328 433.040,226.808 431.227 C 226.134 428.879,222.423 425.710,221.467 426.667 M232.643 427.033 C 232.093 428.466,232.379 451.418,232.956 452.208 C 233.646 453.151,236.272 451.572,237.553 449.444 C 239.321 446.507,239.091 431.252,237.248 429.252 C 235.044 426.861,233.073 425.911,232.643 427.033" stroke="none" fill="#c82a29" fill-rule="evenodd"></path></g></svg>